<svg xmlns="http://www.w3.org/2000/svg" viewBox="0 0 800 200" width="800" height="200">
  <defs>
    <linearGradient id="banner-gradient" x1="0%" y1="0%" x2="100%" y2="100%">
      <stop offset="0%" style="stop-color:#10B981"/>
      <stop offset="50%" style="stop-color:#059669"/>
      <stop offset="100%" style="stop-color:#047857"/>
    </linearGradient>
    <linearGradient id="bg-gradient" x1="0%" y1="0%" x2="100%" y2="100%">
      <stop offset="0%" style="stop-color:#0a0a0f"/>
      <stop offset="100%" style="stop-color:#111827"/>
    </linearGradient>
  </defs>

  <!-- Background -->
  <rect width="800" height="200" fill="url(#bg-gradient)"/>

  <!-- Decorative git branch lines in background -->
  <g opacity="0.15" stroke="#10B981" stroke-width="1.5">
    <!-- Left side branches -->
    <path d="M40 100 Q80 60 120 80" fill="none"/>
    <path d="M40 100 Q80 140 120 120" fill="none"/>
    <circle cx="40" cy="100" r="4" fill="#10B981"/>
    <circle cx="120" cy="80" r="3" fill="#059669"/>
    <circle cx="120" cy="120" r="3" fill="#059669"/>

    <!-- Right side branches -->
    <path d="M760 100 Q720 60 680 80" fill="none"/>
    <path d="M760 100 Q720 140 680 120" fill="none"/>
    <circle cx="760" cy="100" r="4" fill="#10B981"/>
    <circle cx="680" cy="80" r="3" fill="#059669"/>
    <circle cx="680" cy="120" r="3" fill="#059669"/>
  </g>

  <!-- Floating particles -->
  <circle cx="150" cy="40" r="2" fill="#10B981" opacity="0.3"/>
  <circle cx="200" cy="160" r="1.5" fill="#059669" opacity="0.25"/>
  <circle cx="600" cy="30" r="2" fill="#047857" opacity="0.3"/>
  <circle cx="650" cy="170" r="1.5" fill="#10B981" opacity="0.25"/>

  <!-- Main logo group centered -->
  <g transform="translate(220, 45)">
    <!-- Icon background -->
    <rect x="0" y="0" width="110" height="110" rx="22" fill="url(#banner-gradient)"/>

    <!-- Central grip hub -->
    <circle cx="55" cy="55" r="14" fill="white" opacity="0.95"/>

    <!-- Three branches being gripped -->
    <!-- Top branch -->
    <path d="M55 41 L55 24" stroke="white" stroke-width="4" stroke-linecap="round"/>
    <circle cx="55" cy="20" r="6" fill="white"/>

    <!-- Bottom-left branch -->
    <path d="M44 63 L28 79" stroke="white" stroke-width="4" stroke-linecap="round"/>
    <circle cx="24" cy="83" r="6" fill="white"/>

    <!-- Bottom-right branch -->
    <path d="M66 63 L82 79" stroke="white" stroke-width="4" stroke-linecap="round"/>
    <circle cx="86" cy="83" r="6" fill="white"/>

    <!-- Inner grip detail -->
    <circle cx="55" cy="55" r="6" fill="url(#banner-gradient)"/>

    <!-- Text "gitgrip" -->
    <text x="130" y="72" font-family="system-ui, -apple-system, 'Segoe UI', Roboto, sans-serif" font-size="60" font-weight="700" fill="white">gitgrip</text>
  </g>

  <!-- Tagline -->
  <text x="400" y="178" text-anchor="middle" font-family="system-ui, -apple-system, 'Segoe UI', Roboto, sans-serif" font-size="20" font-weight="500" fill="#6EE7B7">git a grip</text>
  <text x="400" y="198" text-anchor="middle" font-family="system-ui, -apple-system, 'Segoe UI', Roboto, sans-serif" font-size="14" fill="#9CA3AF">Multi-repo workflow tool</text>
</svg>
